<svg width="20" height="20" viewBox="0 0 20 20" fill="none" xmlns="http://www.w3.org/2000/svg">
<path d="M16.2498 7.33818C16.2502 7.57878 16.2028 7.81707 16.1104 8.03922C16.018 8.26137 15.8824 8.46298 15.7115 8.63235L8.24233 16.0673C8.12499 16.1841 7.96624 16.2497 7.80069 16.2498H4.7915C4.62574 16.2498 4.46677 16.184 4.34956 16.0668C4.23235 15.9496 4.16651 15.7906 4.16651 15.6248V12.6157C4.16635 12.5338 4.18238 12.4527 4.21371 12.377C4.24503 12.3014 4.29101 12.2326 4.349 12.1748L11.7849 4.70484C11.9538 4.53389 12.1551 4.39824 12.377 4.30582C12.5989 4.2134 12.837 4.16605 13.0773 4.16651C13.3176 4.16585 13.5557 4.21285 13.7777 4.30483C13.9997 4.39681 14.2012 4.53193 14.3707 4.70235L15.7115 6.04319C15.8826 6.21258 16.0183 6.41428 16.1107 6.6366C16.2031 6.85893 16.2504 7.09741 16.2498 7.33818ZM12.8057 9.76069L10.6557 7.61067L5.4165 12.8749V15.0015H7.54149L12.8057 9.76069ZM14.9998 7.3365C15.0004 7.26056 14.9859 7.18527 14.9573 7.11492C14.9287 7.04456 14.8865 6.98055 14.8332 6.92652L13.4915 5.58568C13.4377 5.53218 13.3739 5.48991 13.3037 5.4613C13.2334 5.43268 13.1582 5.4183 13.0823 5.419C13.0065 5.41852 12.9314 5.433 12.8612 5.4616C12.791 5.4902 12.7271 5.53237 12.6732 5.58568L11.5407 6.72401L13.6949 8.87817L14.8323 7.74569C14.8858 7.69183 14.9281 7.62796 14.9568 7.55775C14.9855 7.48755 15.0002 7.41236 14.9998 7.3365Z" fill="#2D2D2D"/>
</svg>
