<svg width="24" height="20" viewBox="0 0 24 20" fill="none" xmlns="http://www.w3.org/2000/svg">
<path d="M15.75 14.1385V14.9662C15.8088 15.3855 15.7521 15.8105 15.5844 16.2092C15.4168 16.6079 15.1423 16.97 14.7816 17.2686C14.421 17.5671 13.9834 17.7942 13.5017 17.933C13.02 18.0718 12.5067 18.1187 12 18.0701H6.00003C5.49337 18.1187 4.98002 18.0718 4.49832 17.933C4.01663 17.7942 3.57908 17.5671 3.21842 17.2686C2.85776 16.97 2.58331 16.6079 2.41562 16.2092C2.24793 15.8105 2.19131 15.3855 2.25003 14.9662V5.03366C2.19131 4.6143 2.24793 4.18937 2.41562 3.79066C2.58331 3.39196 2.85776 3.02979 3.21842 2.73127C3.57908 2.43275 4.01663 2.20559 4.49832 2.06679C4.98002 1.92799 5.49337 1.88115 6.00003 1.92976H12C12.5067 1.88115 13.02 1.92799 13.5017 2.06679C13.9834 2.20559 14.421 2.43275 14.7816 2.73127C15.1423 3.02979 15.4168 3.39196 15.5844 3.79066C15.7521 4.18937 15.8088 4.6143 15.75 5.03366V5.86137C15.75 6.02601 15.671 6.18392 15.5304 6.30033C15.3897 6.41675 15.1989 6.48215 15 6.48215C14.8011 6.48215 14.6104 6.41675 14.4697 6.30033C14.329 6.18392 14.25 6.02601 14.25 5.86137V5.03366C14.25 3.72837 13.577 3.17132 12 3.17132H6.00003C4.42303 3.17132 3.75003 3.72837 3.75003 5.03366V14.9662C3.75003 16.2715 4.42303 16.8285 6.00003 16.8285H12C13.577 16.8285 14.25 16.2715 14.25 14.9662V14.1385C14.25 13.9738 14.329 13.8159 14.4697 13.6995C14.6104 13.5831 14.8011 13.5177 15 13.5177C15.1989 13.5177 15.3897 13.5831 15.5304 13.6995C15.671 13.8159 15.75 13.9738 15.75 14.1385ZM21.692 10.2375C21.7681 10.0853 21.7681 9.91449 21.692 9.76237C21.6541 9.68711 21.5991 9.61854 21.5301 9.5604L18.5301 7.07727C18.4614 7.01628 18.3786 6.96737 18.2866 6.93344C18.1946 6.89951 18.0952 6.88126 17.9945 6.87979C17.8938 6.87832 17.7938 6.89366 17.7004 6.92488C17.607 6.9561 17.5222 7.00256 17.451 7.06151C17.3798 7.12046 17.3236 7.19068 17.2859 7.26798C17.2482 7.34528 17.2296 7.42808 17.2314 7.51143C17.2332 7.59479 17.2552 7.67699 17.2962 7.75314C17.3372 7.82929 17.3963 7.89781 17.47 7.95464L19.1891 9.3783H8.00003C7.80112 9.3783 7.61035 9.4437 7.4697 9.56012C7.32905 9.67654 7.25003 9.83444 7.25003 9.99908C7.25003 10.1637 7.32905 10.3216 7.4697 10.438C7.61035 10.5545 7.80112 10.6199 8.00003 10.6199H19.1891L17.47 12.0435C17.3963 12.1004 17.3372 12.1689 17.2962 12.245C17.2552 12.3212 17.2332 12.4034 17.2314 12.4868C17.2296 12.5701 17.2482 12.6529 17.2859 12.7302C17.3236 12.8075 17.3798 12.8777 17.451 12.9367C17.5222 12.9956 17.607 13.0421 17.7004 13.0733C17.7938 13.1045 17.8938 13.1198 17.9945 13.1184C18.0952 13.1169 18.1946 13.0987 18.2866 13.0647C18.3786 13.0308 18.4614 12.9819 18.5301 12.9209L21.5301 10.4378C21.5989 10.3801 21.6539 10.3121 21.692 10.2375Z" fill="#FA0E1C"/>
</svg>
