<svg width="18" height="18" viewBox="0 0 18 18" fill="none" xmlns="http://www.w3.org/2000/svg">
<path fill-rule="evenodd" clip-rule="evenodd" d="M16.6154 15.7435C16.9657 15.7435 17.25 16.0278 17.25 16.3781C17.25 16.7284 16.9657 17.0127 16.6154 17.0127H10.4784C10.1281 17.0127 9.8438 16.7284 9.8438 16.3781C9.8438 16.0278 10.1281 15.7435 10.4784 15.7435H16.6154ZM12.6942 1.54037C12.7366 1.57337 14.1521 2.67335 14.1521 2.67335C14.6666 2.97965 15.0685 3.52709 15.2208 4.17523C15.3723 4.8166 15.2623 5.47828 14.9094 6.03757C14.9071 6.0413 14.9047 6.04499 14.8966 6.05595L14.8902 6.06442C14.8329 6.1399 14.5839 6.45471 13.3274 8.02902C13.3157 8.04965 13.3025 8.06898 13.2881 8.08775C13.2669 8.11543 13.2438 8.14087 13.2192 8.16404C13.1335 8.27195 13.043 8.38534 12.9478 8.50455L12.7549 8.74609C12.357 9.24445 11.885 9.83539 11.325 10.5363L11.0376 10.896C9.95656 12.2491 8.57202 13.9816 6.79839 16.2005C6.41002 16.6845 5.82788 16.9662 5.20259 16.9738L2.12351 17.0128H2.11505C1.82144 17.0128 1.5659 16.8114 1.49737 16.5245L0.804385 13.5876C0.661388 12.9792 0.803538 12.3514 1.19361 11.864L9.16418 1.8949C9.16757 1.89152 9.1701 1.88729 9.17349 1.8839C10.0475 0.838929 11.6281 0.684933 12.6942 1.54037ZM8.27551 5.03774L2.18443 12.6569C2.03974 12.8379 1.98643 13.0715 2.03974 13.2957L2.61596 15.7368L5.18735 15.7046C5.43189 15.7021 5.6578 15.593 5.80757 15.4068C6.57881 14.4419 7.54811 13.2291 8.54469 11.982L8.89727 11.5408L9.25046 11.0988C10.1851 9.92914 11.1084 8.77348 11.881 7.80618L8.27551 5.03774ZM10.1508 2.69365L9.06834 4.04608L12.6735 6.81372C13.3674 5.94454 13.8239 5.37208 13.8661 5.31751C14.0049 5.09244 14.0591 4.77429 13.9863 4.46799C13.9118 4.15408 13.7164 3.88755 13.4346 3.71747C13.3745 3.67601 11.9488 2.56927 11.9048 2.53458C11.3684 2.10474 10.5857 2.1792 10.1508 2.69365Z" fill="white"/>
</svg>
