<svg width="24" height="24" viewBox="0 0 24 24" fill="none" xmlns="http://www.w3.org/2000/svg">
<path d="M15 4.58152C14.0736 4.20651 13.0609 4 12 4C7.58172 4 4 7.58172 4 12C4 15.1631 5.83576 17.8975 8.5 19.1958M9 15V20H4" stroke="#6D7885" stroke-width="2" stroke-linecap="square"/>
<path d="M13 21C13.5523 21 14 20.5523 14 20C14 19.4477 13.5523 19 13 19C12.4477 19 12 19.4477 12 20C12 20.5523 12.4477 21 13 21Z" fill="#6D7885"/>
<path d="M21 11C21 10.4477 20.5523 10 20 10C19.4477 10 19 10.4477 19 11C19 11.5523 19.4477 12 20 12C20.5523 12 21 11.5523 21 11Z" fill="#6D7885"/>
<path d="M19.9299 14.2689C20.4082 14.5451 20.572 15.1567 20.2959 15.635C20.0197 16.1133 19.4082 16.2771 18.9299 16.001C18.4516 15.7248 18.2877 15.1133 18.5638 14.635C18.84 14.1567 19.4516 13.9928 19.9299 14.2689Z" fill="#6D7885"/>
<path d="M17.3674 19.2939C17.8457 19.0178 18.0096 18.4062 17.7334 17.9279C17.4573 17.4496 16.8457 17.2857 16.3674 17.5618C15.8891 17.838 15.7252 18.4496 16.0014 18.9279C16.2775 19.4062 16.8891 19.57 17.3674 19.2939Z" fill="#6D7885"/>
<path d="M18.9278 7.999C18.4496 8.27514 17.838 8.11127 17.5618 7.63298C17.2857 7.15468 17.4496 6.54309 17.9278 6.26695C18.4061 5.99081 19.0177 6.15468 19.2939 6.63298C19.57 7.11127 19.4061 7.72286 18.9278 7.999Z" fill="#6D7885"/>
</svg>
