<svg width="24" height="24" viewBox="0 0 24 24" fill="none" xmlns="http://www.w3.org/2000/svg">
<path d="M16.7618 19.0287L17.4364 19.7669L18.9128 18.4176L18.2382 17.6795L16.7618 19.0287ZM4 12C4 7.58172 7.58172 4 12 4V2C6.47715 2 2 6.47715 2 12H4ZM12 4C16.4183 4 20 7.58172 20 12H22C22 6.47715 17.5228 2 12 2V4ZM14 10C14 11.1046 13.1046 12 12 12V14C14.2091 14 16 12.2091 16 10H14ZM12 12C10.8954 12 10 11.1046 10 10H8C8 12.2091 9.79086 14 12 14V12ZM10 10C10 8.89543 10.8954 8 12 8V6C9.79086 6 8 7.79086 8 10H10ZM12 8C13.1046 8 14 8.89543 14 10H16C16 7.79086 14.2091 6 12 6V8ZM12 20C9.99966 20 8.173 19.2671 6.77004 18.0539L5.46183 19.5667C7.21436 21.0822 9.50126 22 12 22V20ZM6.77004 18.0539C5.07193 16.5855 4 14.4185 4 12H2C2 15.0236 3.34312 17.7345 5.46183 19.5667L6.77004 18.0539ZM20 12C20 14.4185 18.9281 16.5855 17.23 18.0539L18.5382 19.5667C20.6569 17.7345 22 15.0236 22 12H20ZM17.23 18.0539C15.827 19.2671 14.0003 20 12 20V22C14.4987 22 16.7856 21.0822 18.5382 19.5667L17.23 18.0539ZM7.23817 19.0287C8.37439 17.7854 10.0096 17 12 17V15C9.45012 15 7.27843 16.02 5.76183 17.6795L7.23817 19.0287ZM12 17C13.9904 17 15.6256 17.7854 16.7618 19.0287L18.2382 17.6795C16.7216 16.02 14.5499 15 12 15V17Z" fill="#99A2AD"/>
</svg>
