<svg xmlns="http://www.w3.org/2000/svg" version="1.1" xmlns:xlink="http://www.w3.org/1999/xlink" viewBox="0 0 5.42222319516897 5.784956910403441"><g transform="matrix(0.8571428571428572,0,0,0.8571428571428572,2.325349913711717,4.838106155094698)"><rect width="6.6886607762649355" height="6.6886607762649355" x="-2.8942750902809053" y="-5.614229371340941" fill="#ffffff"></rect><g transform="matrix(1,0,0,1,0,0)" clip-path="url(#SvgjsClipPath187760)"><g clip-path="url(#SvgjsClipPath1877558bb2ab01-03f2-4312-a735-9d502ab9dbc2)"><path d=" M 1.7344336155127915 -0.512873351494207 C 1.510895392024656 -0.38393523072333036 1.2725759024869494 -0.30411639405564284 1.031754967925469 -0.2704605882812343 C 1.2919052503979276 -0.3188976601052147 1.5452334100782759 -0.6079282623976061 1.5495540878466127 -0.8726266267314706 C 1.5588776556624961 -1.4490960026647595 0.7936628824808327 -2.1579145607649814 2.3177251142381903 -3.097548273331589 C 2.456214206918022 -2.3227825282409715 2.3138592446559945 -1.3938368080486692 1.7990163779447657 -0.7552861147071797 C 2.385036725787009 -1.3340295315711725 2.5790124171760005 -2.0965154556359917 2.5273916880490357 -3.023187134897591 C 2.94968108888064 -2.1172092281053927 2.616306688439535 -1.0222585199717487 1.7344336155127915 -0.5131007555872786 Z" fill="#3e7742" transform="matrix(1,0,0,1,0,0)" fill-rule="evenodd"></path></g><g clip-path="url(#SvgjsClipPath1877558bb2ab01-03f2-4312-a735-9d502ab9dbc2)"><path d=" M 1.0804194438425196 -0.2779649233525552 L 1.0801920397494493 -0.2779649233525552 L 1.0799646356563786 -0.2777375192594862 L 1.0804194438425196 -0.2779649233525552 L 1.0804194438425196 -0.2779649233525552 Z" fill="#91ca9d" transform="matrix(1,0,0,1,0,0)" fill-rule="evenodd"></path></g><g clip-path="url(#SvgjsClipPath1877558bb2ab01-03f2-4312-a735-9d502ab9dbc2)"><path d=" M 1.031754967925469 -0.2704605882812343 C 1.2919052503979276 -0.3188976601052147 1.5452334100782759 -0.6079282623976061 1.5495540878466127 -0.8726266267314706 C 1.551828128777316 -1.0081594662013882 1.5111227961177267 -1.1507418325564855 1.4676886143412937 -1.3019655544482558 C 1.1486406717636193 -0.7737058462458779 0.6767771786426828 -0.5817767916945176 0.2322021766901856 -0.9458507447001172 C 0.3277118957797249 -0.591100359510401 0.5260082649370537 -0.1897321352412673 1.0317549679254694 -0.2704605882812343 L 1.0317549679254694 -0.2704605882812343 Z" fill="#91ca9d" transform="matrix(1,0,0,1,0,0)" fill-rule="evenodd"></path></g><g clip-path="url(#SvgjsClipPath1877558bb2ab01-03f2-4312-a735-9d502ab9dbc2)"><path d=" M -0.03181397536446884 -0.3057082227071364 C -0.8600196823266141 -0.7243591580496154 -1.4232996208618236 -1.273540042814465 -1.6316017701142467 -2.070591389025975 C -1.3359764491228163 -1.3056040199373813 -0.6025982489709993 -0.7177644393505762 0.13760207397292756 -0.4503372258998679 C 0.08598134484596254 -2.2397800342703014 -0.9105033909882274 -1.931647488160003 -1.4051072934161972 -2.227955021430644 C -1.6322839823934578 -2.3641700731797726 -1.7559918090237177 -2.728016622092302 -1.6677590209124293 -2.977478912190455 C -1.758948062233632 -2.7518940518646864 -1.8092043668021751 -2.505615419069518 -1.8092043668021751 -2.2477391775277624 C -1.8092043668021751 -1.229423648758821 -1.0276164989194478 -0.39325879853921286 -0.03181397536446884 -0.30593562680020625 Z" fill="#3e7742" transform="matrix(1,0,0,1,0,0)" fill-rule="evenodd"></path></g><g clip-path="url(#SvgjsClipPath1877558bb2ab01-03f2-4312-a735-9d502ab9dbc2)"><path d=" M -1.6857239442649854 -2.9315432853902474 L -1.685496540171915 -2.9315432853902474 L -1.685496540171915 -2.9319980935763885 L -1.6857239442649854 -2.9315432853902474 L -1.6857239442649854 -2.9315432853902474 Z" fill="#91ca9d" transform="matrix(1,0,0,1,0,0)" fill-rule="evenodd"></path></g><g clip-path="url(#SvgjsClipPath1877558bb2ab01-03f2-4312-a735-9d502ab9dbc2)"><path d=" M -1.6679864250054997 -2.977478912190455 C -1.756219213116788 -2.7280166220923014 -1.632511386486528 -2.364170073179772 -1.4053346975092673 -2.2279550214306436 C -1.2891312059503284 -2.1583693689511225 -1.145184415036809 -2.1219847140598698 -0.9925962685866169 -2.0842356346101947 C -1.2904956305087505 -2.6247751638383714 -1.2209099780292292 -3.1291574422683657 -0.6833267020109668 -3.332229297380171 C -1.0383044912937534 -3.426829400097429 -1.4849261300838834 -3.4559371240104313 -1.6679864250054997 -2.977478912190455 L -1.6679864250054997 -2.977478912190455 Z" fill="#91ca9d" transform="matrix(1,0,0,1,0,0)" fill-rule="evenodd"></path></g><g clip-path="url(#SvgjsClipPath1877558bb2ab01-03f2-4312-a735-9d502ab9dbc2)"><path d=" M -1.105388698749501 -3.8807279698658093 C -0.3288037209143211 -4.388748713784929 0.42845190900988106 -4.602053753084899 1.2227744061045471 -4.3839732278304515 C 0.41253362249495806 -4.510409903577555 -0.4631995399188862 -4.169303763972059 -1.0649107701829816 -3.6619652323321508 C 0.5107721907013412 -2.8119287324352538 0.7420421533538675 -3.829107240738844 1.2459696235977211 -4.109269083401491 C 1.4774669903433182 -4.237752395986229 1.8545029766539263 -4.16316385345916 2.026420471015097 -3.9619112310919173 C 1.8767885777748181 -4.153385477457136 1.6884979887125842 -4.320300081770759 1.4649597652244495 -4.449238202541636 C 0.583086692297706 -4.9583959669261075 -0.5318755760261265 -4.699610109012071 -1.105388698749501 -3.8807279698658093 Z" fill="#3e7742" transform="matrix(1,0,0,1,0,0)" fill-rule="evenodd"></path></g><g clip-path="url(#SvgjsClipPath1877558bb2ab01-03f2-4312-a735-9d502ab9dbc2)"><path d=" M 1.995493514357531 -4.000115118727733 L 1.995493514357531 -4.000115118727733 L 1.9957209184506013 -3.9998877146346627 L 1.995493514357531 -4.000115118727733 L 1.995493514357531 -4.000115118727733 Z" fill="#91ca9d" transform="matrix(1,0,0,1,0,0)" fill-rule="evenodd"></path></g><g clip-path="url(#SvgjsClipPath1877558bb2ab01-03f2-4312-a735-9d502ab9dbc2)"><path d=" M 2.026420471015096 -3.9619112310919173 C 1.8545029766539254 -4.162936449366089 1.4774669903433164 -4.237752395986229 1.2459696235977202 -4.109269083401491 C 1.1274920911080777 -4.043549300504166 1.0242506328541476 -3.936896780854181 0.9150966681803889 -3.823649542505156 C 1.532043972680197 -3.811369721479358 1.934321813321612 -3.498916497600723 1.841313539255847 -2.9317706894833178 C 2.1007816094490943 -3.191920971955777 2.3493342831749655 -3.5641814723119083 2.026420471015097 -3.9619112310919173 L 2.026420471015097 -3.9619112310919173 Z" fill="#91ca9d" transform="matrix(1,0,0,1,0,0)" fill-rule="evenodd"></path></g></g><g><path d=" M -0.001318359375 0.030761718750000014 Q 0.010839843750000001 0.02080078125000001 0.012890625000000003 0.02080078125000001 L 0.09550781250000001 0.02080078125000001 Q 0.09455566406250002 0.020947265625000003 0.09104003906250001 0.02402343750000001 Q 0.08752441406250001 0.027099609375000014 0.08613281250000002 0.028198242187500014 Q 0.08276367187500001 0.030761718750000014 0.08129882812500001 0.030761718750000014 L 0.05126953125000001 0.030761718750000014 L 0.05126953125000001 0.09777832031250001 Q 0.05126953125000001 0.10664062500000002 0.048266601562500004 0.11242675781250003 Q 0.04694824218750001 0.11491699218750002 0.045336914062500004 0.11623535156250002 L 0.06950683593750001 0.11623535156250002 Q 0.06848144531250001 0.11638183593750002 0.0649658203125 0.11945800781250002 Q 0.06145019531250001 0.12253417968750002 0.06005859375000001 0.12363281250000002 Q 0.05668945312500001 0.12619628906250002 0.05522460937500001 0.12619628906250002 L 0.029736328125000003 0.12619628906250002 Q 0.034130859375 0.12224121093750002 0.0352294921875 0.11953125000000002 Q 0.03698730468750001 0.11520996093750002 0.03698730468750001 0.10869140625000001 L 0.03698730468750001 0.030761718750000014 L -0.001318359375 0.030761718750000014 M 0.136039306640625 0.11022949218750003 Q 0.136039306640625 0.11755371093750003 0.140287353515625 0.11755371093750003 Q 0.14175219726562502 0.11755371093750003 0.144755126953125 0.11630859375000002 Q 0.141898681640625 0.12268066406250003 0.136185791015625 0.1259033203125 Q 0.133256103515625 0.12758789062500003 0.129960205078125 0.12740478515625003 Q 0.126664306640625 0.12722167968750003 0.125236083984375 0.12561035156250003 Q 0.123807861328125 0.12399902343750002 0.123002197265625 0.12172851562500002 Q 0.121830322265625 0.11813964843750002 0.121830322265625 0.11250000000000002 L 0.121830322265625 0.02885742187500001 Q 0.121830322265625 0.02109375000000001 0.11912036132812501 0.01853027343750001 Q 0.117875244140625 0.017358398437500006 0.115970947265625 0.017358398437500006 Q 0.112821533203125 0.017358398437500006 0.109086181640625 0.018383789062500003 Q 0.11802172851562501 0.0113525390625 0.136039306640625 0 L 0.136039306640625 0.0671630859375 Q 0.14519458007812502 0.059106445312500006 0.154789306640625 0.056176757812500006 Q 0.158304931640625 0.055078125000000006 0.161600830078125 0.055078125000000006 Q 0.164896728515625 0.055078125000000006 0.167863037109375 0.05614013671875001 Q 0.17082934570312502 0.05720214843750002 0.173173095703125 0.059106445312500006 Q 0.17837329101562502 0.06342773437500002 0.17837329101562502 0.06987304687500001 L 0.17837329101562502 0.10715332031250002 Q 0.17837329101562502 0.11682128906250003 0.183060791015625 0.11784667968750002 Q 0.18437915039062502 0.11813964843750002 0.18584399414062502 0.11813964843750002 Q 0.188114501953125 0.11813964843750002 0.192216064453125 0.11630859375000002 Q 0.186136962890625 0.12407226562500002 0.178080322265625 0.12648925781250003 Q 0.175297119140625 0.1273681640625 0.17211108398437502 0.1273681640625 Q 0.168925048828125 0.1273681640625 0.16716723632812502 0.12583007812500002 Q 0.165409423828125 0.12429199218750002 0.164750244140625 0.12194824218750003 Q 0.16409106445312502 0.11960449218750002 0.16409106445312502 0.11682128906250003 L 0.16409106445312502 0.08400878906250002 Q 0.16409106445312502 0.07280273437500001 0.160648681640625 0.06892089843750002 Q 0.15749926757812502 0.06525878906250002 0.149003173828125 0.06525878906250002 Q 0.137650634765625 0.06525878906250002 0.136332275390625 0.08078613281250002 Q 0.136039306640625 0.08474121093750002 0.136039306640625 0.08811035156250002 L 0.136039306640625 0.11022949218750003 M 0.26101904296875 0.06555175781250001 Q 0.27281103515625 0.054931640625000014 0.27830419921875005 0.054931640625000014 Q 0.28379736328125005 0.054931640625000014 0.28379736328125005 0.06196289062500002 L 0.28379736328125005 0.10847167968750002 Q 0.28379736328125005 0.11286621093750002 0.28577490234375 0.11506347656250002 Q 0.28775244140625 0.11726074218750002 0.29236669921875 0.11726074218750002 Q 0.29558935546875 0.11726074218750002 0.29866552734375 0.11608886718750003 Q 0.29624853515625005 0.11696777343750002 0.2943076171875 0.11883544921875003 Q 0.29236669921875 0.12070312500000002 0.29016943359375 0.12260742187500002 Q 0.28467626953125 0.1273681640625 0.27764501953125 0.1273681640625 Q 0.27090673828125 0.1273681640625 0.26995458984375 0.11989746093750002 Q 0.26973486328125 0.11777343750000002 0.26966162109375 0.11557617187500002 Q 0.25369482421875 0.12766113281250002 0.24131689453125 0.12766113281250002 Q 0.23296728515625 0.12766113281250002 0.22871923828125001 0.12033691406250002 Q 0.22491064453125 0.11374511718750002 0.22491064453125 0.10231933593750002 L 0.22491064453125 0.07763671875000001 Q 0.22491064453125 0.07126464843750002 0.22381201171875 0.068994140625 Q 0.22176123046875001 0.06445312500000001 0.21641455078125 0.06445312500000001 Q 0.21385107421875 0.06445312500000001 0.21121435546875 0.06555175781250001 Q 0.22014990234375 0.05756835937500002 0.22571630859375 0.055444335937500006 Q 0.22842626953125 0.054345703125000006 0.23135595703125 0.054345703125000006 Q 0.23933935546875001 0.054345703125000006 0.23933935546875001 0.06452636718750002 Q 0.23933935546875001 0.06452636718750002 0.23933935546875001 0.06943359375000002 Q 0.23933935546875001 0.06943359375000002 0.23926611328125 0.09675292968750002 Q 0.23926611328125 0.10722656250000001 0.24314794921875002 0.11213378906250002 Q 0.24739599609375001 0.11770019531250002 0.25728369140625 0.11770019531250002 Q 0.26211767578125 0.11770019531250002 0.26731787109375 0.11352539062500003 Q 0.26863623046875 0.11250000000000002 0.26966162109375 0.11176757812500002 L 0.26966162109375 0.07309570312500002 Q 0.26966162109375 0.06767578125000001 0.26702490234375 0.06562500000000002 Q 0.26592626953125 0.06481933593750001 0.26431494140625 0.06481933593750001 Q 0.26270361328125 0.06481933593750001 0.26101904296875 0.06555175781250001 M 0.388635498046875 0.05500488281250002 Q 0.37977319335937504 0.06804199218750001 0.367175537109375 0.06804199218750001 Q 0.36512475585937504 0.06804199218750001 0.361902099609375 0.0664306640625 Q 0.355749755859375 0.06335449218750001 0.35358911132812504 0.06335449218750001 Q 0.351428466796875 0.06335449218750001 0.35011010742187504 0.06474609375000001 Q 0.348791748046875 0.06613769531250002 0.34791284179687504 0.0686279296875 Q 0.345935302734375 0.07404785156250002 0.345935302734375 0.08269042968750001 L 0.345935302734375 0.11074218750000002 Q 0.345935302734375 0.11542968750000002 0.348791748046875 0.11711425781250002 Q 0.349817138671875 0.11777343750000002 0.351355224609375 0.11777343750000002 Q 0.352893310546875 0.11777343750000002 0.354577880859375 0.11704101562500002 Q 0.353113037109375 0.11835937500000002 0.351721435546875 0.12015380859375002 Q 0.350329833984375 0.12194824218750003 0.34857202148437505 0.12363281250000002 Q 0.344397216796875 0.12766113281250002 0.33868432617187505 0.12766113281250002 Q 0.33575463867187505 0.12766113281250002 0.333703857421875 0.12579345703125003 Q 0.331653076171875 0.12392578125000002 0.331653076171875 0.12121582031250003 L 0.331653076171875 0.07902832031250001 Q 0.331653076171875 0.07646484375000001 0.33172631835937505 0.07390136718750001 Q 0.33179956054687504 0.07133789062500001 0.331213623046875 0.06921386718750001 Q 0.329822021484375 0.064599609375 0.323230224609375 0.064599609375 Q 0.32008081054687504 0.064599609375 0.316931396484375 0.06577148437500002 Q 0.318835693359375 0.06511230468750001 0.32183862304687505 0.06232910156250002 Q 0.32769799804687505 0.05705566406250001 0.32996850585937504 0.056176757812500006 Q 0.33465600585937505 0.05449218750000001 0.337549072265625 0.05449218750000001 Q 0.340442138671875 0.05449218750000001 0.342016845703125 0.05533447265625001 Q 0.343591552734375 0.056176757812500006 0.344470458984375 0.057641601562500006 Q 0.345935302734375 0.060058593750000014 0.345935302734375 0.06511230468750001 Q 0.348059326171875 0.06350097656250002 0.35058618164062505 0.06148681640625002 Q 0.353113037109375 0.059472656250000006 0.355822998046875 0.057641601562500006 Q 0.362341552734375 0.05332031250000001 0.367175537109375 0.05332031250000001 Q 0.370031982421875 0.05332031250000001 0.37318139648437504 0.054931640625000014 Q 0.376330810546875 0.056542968750000006 0.37786889648437505 0.057275390625000006 Q 0.37940698242187504 0.058007812500000006 0.380725341796875 0.058007812500000006 Q 0.383655029296875 0.058007812500000006 0.388635498046875 0.05500488281250002 M 0.429533203125 0.0019042968750000028 L 0.42997265625000003 0.01025390625 L 0.42997265625000003 0.014062500000000006 Q 0.42997265625000003 0.017578125 0.42909375 0.01834716796875001 Q 0.42821484375 0.019116210937500003 0.427189453125 0.019848632812500003 Q 0.423087890625 0.022778320312500003 0.41532421875000003 0.02775878906250001 Q 0.41569042968750003 0.02043457031250001 0.41569042968750003 0.02017822265625001 Q 0.41569042968750003 0.019921875000000006 0.41532421875000003 0.011865234375000006 L 0.429533203125 0.0019042968750000028 M 0.4448408203125 0.11718750000000003 Q 0.4426435546875 0.11894531250000002 0.44055615234375 0.12077636718750002 Q 0.43846875 0.12260742187500002 0.43619824218750003 0.12414550781250003 Q 0.4309248046875 0.12758789062500003 0.4260908203125 0.12758789062500003 Q 0.42154980468750003 0.12758789062500003 0.41971875000000003 0.12619628906250002 Q 0.4159833984375 0.12341308593750003 0.4159833984375 0.11594238281250002 L 0.4159833984375 0.08122558593750001 Q 0.4159833984375 0.07331542968750002 0.41312695312500003 0.07097167968750001 Q 0.41180859375 0.06987304687500001 0.4102705078125 0.06987304687500001 Q 0.40873242187500003 0.06987304687500001 0.40767041015625 0.07005615234375001 Q 0.4066083984375 0.07023925781250001 0.405509765625 0.070458984375 Q 0.4044111328125 0.07067871093750001 0.40323925781250003 0.07089843750000002 Q 0.40690136718750003 0.06804199218750001 0.41008740234375 0.06577148437500002 Q 0.4132734375 0.06350097656250002 0.4155439453125 0.06196289062500002 Q 0.417814453125 0.060424804687500014 0.4218427734375 0.05760498046875001 Q 0.42587109375 0.05478515625000001 0.4301923828125 0.052514648437500006 L 0.4301923828125 0.10422363281250002 Q 0.4301923828125 0.11169433593750003 0.43114453125 0.11367187500000002 Q 0.4331953125 0.11770019531250002 0.44022656250000003 0.11770019531250002 Q 0.442130859375 0.11770019531250002 0.4448408203125 0.11718750000000003 M 0.562899169921875 0.021313476562500003 Q 0.564327392578125 0.02197265625 0.564327392578125 0.022595214843750003 Q 0.564327392578125 0.023217773437500006 0.563155517578125 0.024316406250000006 Q 0.561983642578125 0.025415039062500006 0.560225830078125 0.02677001953125001 Q 0.558468017578125 0.02812500000000001 0.556343994140625 0.029663085937500014 Q 0.554219970703125 0.031201171875000003 0.552315673828125 0.03244628906250001 Q 0.547774658203125 0.03544921875000001 0.546895751953125 0.03574218750000001 Q 0.546968994140625 0.03544921875000001 0.547994384765625 0.03464355468750001 Q 0.549898681640625 0.033105468750000006 0.549898681640625 0.03270263671875001 Q 0.549898681640625 0.0322998046875 0.549569091796875 0.032043457031250014 Q 0.549239501953125 0.03178710937500001 0.548836669921875 0.03160400390625001 Q 0.548433837890625 0.03142089843750001 0.548067626953125 0.031274414062500006 Q 0.547701416015625 0.031127929687500014 0.545284423828125 0.03024902343750001 Q 0.539498291015625 0.027978515625000006 0.528658447265625 0.027978515625000006 Q 0.517818603515625 0.027978515625000006 0.509945068359375 0.03050537109375001 Q 0.502071533203125 0.0330322265625 0.49657836914062503 0.0381591796875 Q 0.485225830078125 0.04877929687500002 0.485225830078125 0.06906738281250002 Q 0.485225830078125 0.08964843750000001 0.496505126953125 0.10385742187500002 Q 0.508663330078125 0.11909179687500002 0.528438720703125 0.11909179687500002 Q 0.541549072265625 0.11909179687500002 0.560592041015625 0.11074218750000002 Q 0.560006103515625 0.11125488281250002 0.559493408203125 0.11169433593750003 Q 0.558760986328125 0.11250000000000002 0.557662353515625 0.11337890625000002 Q 0.536348876953125 0.12934570312500002 0.513497314453125 0.12934570312500002 Q 0.493795166015625 0.12934570312500002 0.482003173828125 0.11447753906250002 Q 0.471090087890625 0.10063476562500001 0.471090087890625 0.08012695312500001 Q 0.471090087890625 0.06958007812500001 0.474202880859375 0.06229248046875001 Q 0.477315673828125 0.05500488281250002 0.481490478515625 0.04929199218750001 Q 0.485665283203125 0.043579101562500014 0.490975341796875 0.03874511718750001 Q 0.496285400390625 0.03391113281250001 0.502474365234375 0.03006591796875001 Q 0.508663330078125 0.02622070312500001 0.515328369140625 0.023510742187500003 Q 0.529024658203125 0.0179443359375 0.542940673828125 0.0179443359375 Q 0.550777587890625 0.0179443359375 0.556124267578125 0.019299316406250003 Q 0.561470947265625 0.020654296875000006 0.562899169921875 0.021313476562500003 M 0.64118701171875 0.07404785156250002 Q 0.64118701171875 0.06467285156250002 0.63591357421875 0.06467285156250002 Q 0.6341557617187501 0.06467285156250002 0.63254443359375 0.06540527343750002 Q 0.64082080078125 0.05830078125000002 0.64433642578125 0.056579589843750014 Q 0.6478520507812501 0.05485839843750001 0.6502690429687501 0.05485839843750001 Q 0.65268603515625 0.05485839843750001 0.6540776367187501 0.056542968750000006 Q 0.65546923828125 0.058227539062500014 0.65546923828125 0.06086425781250002 L 0.65546923828125 0.10407714843750002 Q 0.65546923828125 0.12861328125000002 0.64338427734375 0.14831542968750003 Q 0.63496142578125 0.16201171875000003 0.6211186523437501 0.16779785156250004 Q 0.6141606445312501 0.17072753906250004 0.60566455078125 0.17072753906250004 Q 0.5984135742187501 0.17072753906250004 0.5942387695312501 0.16750488281250003 Q 0.59270068359375 0.16625976562500003 0.59270068359375 0.16483154296875002 Q 0.59270068359375 0.16340332031250004 0.5936528320312501 0.16219482421875003 Q 0.5946049804687501 0.16098632812500002 0.5960698242187501 0.15977783203125 Q 0.5975346679687501 0.15856933593750003 0.5993657226562501 0.15739746093750004 Q 0.6011967773437501 0.15622558593750002 0.60295458984375 0.1552001953125 Q 0.60734912109375 0.15249023437500003 0.60859423828125 0.15146484375000002 Q 0.60676318359375 0.15292968750000002 0.60676318359375 0.15465087890625 Q 0.60676318359375 0.15637207031250003 0.60844775390625 0.15758056640625 Q 0.6101323242187501 0.15878906250000002 0.6123295898437501 0.15952148437500002 Q 0.6165776367187501 0.16091308593750003 0.6211552734375001 0.16091308593750003 Q 0.6257329101562501 0.16091308593750003 0.62928515625 0.15853271484375003 Q 0.6328374023437501 0.15615234375000003 0.63510791015625 0.15223388671875002 Q 0.63737841796875 0.14831542968750003 0.6385869140625 0.14337158203125003 Q 0.6397954101562501 0.13842773437500003 0.64030810546875 0.13337402343750002 Q 0.6408940429687501 0.12795410156250003 0.64118701171875 0.11506347656250002 Q 0.62485400390625 0.12751464843750002 0.61284228515625 0.12751464843750002 Q 0.6044926757812501 0.12751464843750002 0.6002446289062501 0.12209472656250002 Q 0.5964360351562501 0.11718750000000003 0.5964360351562501 0.10861816406250002 L 0.5964360351562501 0.07917480468750002 Q 0.5964360351562501 0.06437988281250001 0.58793994140625 0.06437988281250001 Q 0.5852299804687501 0.06437988281250001 0.58273974609375 0.06540527343750002 Q 0.59152880859375 0.05756835937500002 0.59724169921875 0.055297851562500014 Q 0.59995166015625 0.05427246093750002 0.602771484375 0.05427246093750002 Q 0.6055913085937501 0.05427246093750002 0.6072026367187501 0.05533447265625001 Q 0.60881396484375 0.056396484375000014 0.6096196289062501 0.05808105468750001 Q 0.6108647460937501 0.060791015625000014 0.6108647460937501 0.06628417968750001 L 0.61079150390625 0.09660644531250001 Q 0.61079150390625 0.10700683593750002 0.6145268554687501 0.11191406250000002 Q 0.6189213867187501 0.11755371093750003 0.6288090820312501 0.11755371093750003 Q 0.63239794921875 0.11755371093750003 0.6358037109375001 0.11557617187500002 Q 0.63920947265625 0.11359863281250002 0.64118701171875 0.11066894531250002 L 0.64118701171875 0.07404785156250002 M 0.7389938964843751 0.06950683593750001 Q 0.7404587402343751 0.06804199218750001 0.7404587402343751 0.06730957031250001 Q 0.7404587402343751 0.06657714843750001 0.7394699707031251 0.06591796875000001 Q 0.7384812011718751 0.06525878906250002 0.7369064941406251 0.06470947265625002 Q 0.7353317871093751 0.06416015625000002 0.7334274902343751 0.06368408203125002 Q 0.7315231933593751 0.06320800781250001 0.7297653808593751 0.06291503906250001 Q 0.7260300292968751 0.06218261718750001 0.7225876464843751 0.06218261718750001 Q 0.7191452636718751 0.06218261718750001 0.7155930175781251 0.06427001953125001 Q 0.7120407714843751 0.06635742187500002 0.7099167480468751 0.06979980468750002 Q 0.7061813964843751 0.0759521484375 0.7061813964843751 0.08470458984375001 Q 0.7061813964843751 0.09345703125000002 0.7080856933593751 0.09913330078125002 Q 0.7099899902343751 0.10480957031250002 0.7136520996093751 0.10891113281250002 Q 0.7213425292968751 0.11740722656250002 0.7354050292968751 0.11740722656250002 Q 0.7442673339843751 0.11740722656250002 0.7521774902343751 0.11301269531250002 Q 0.7429489746093751 0.12297363281250002 0.7288132324218751 0.12634277343750003 Q 0.7243454589843751 0.1273681640625 0.7189255371093751 0.1273681640625 Q 0.7135056152343751 0.1273681640625 0.7082321777343751 0.12509765625000002 Q 0.7029587402343751 0.12282714843750002 0.6992966308593751 0.11879882812500002 Q 0.6917526855468751 0.11052246093750002 0.6917526855468751 0.09733886718750001 Q 0.6917526855468751 0.08664550781250002 0.6991501464843751 0.07580566406250001 Q 0.7100632324218751 0.05998535156250001 0.7279343261718751 0.05427246093750002 Q 0.7335007324218751 0.05244140625000002 0.7380417480468751 0.05244140625000002 Q 0.7487351074218751 0.05244140625000002 0.7540085449218751 0.056396484375000014 Q 0.7545944824218751 0.05683593750000002 0.7545944824218751 0.05756835937500002 Q 0.7545944824218751 0.060205078125000006 0.7439011230468751 0.06708984375000002 Q 0.7400925292968751 0.06950683593750001 0.7389938964843751 0.06950683593750001 M 0.8164394531250001 0.11711425781250002 Q 0.8140224609375001 0.11901855468750003 0.8118251953125001 0.12092285156250002 Q 0.8096279296875001 0.12282714843750002 0.8072841796875001 0.12429199218750002 Q 0.8020839843750001 0.12766113281250002 0.796517578125 0.12766113281250002 Q 0.7884609375 0.12766113281250002 0.787728515625 0.11652832031250002 Q 0.78758203125 0.11352539062500003 0.78758203125 0.11066894531250002 L 0.78758203125 0.0322998046875 Q 0.78758203125 0.02226562500000001 0.7830410156250001 0.01926269531250001 Q 0.78113671875 0.0179443359375 0.7793789062500001 0.0179443359375 Q 0.7770351562500001 0.0179443359375 0.7762294921875 0.01805419921875001 Q 0.7754238281250001 0.01816406250000001 0.7748378906250001 0.01823730468750001 Q 0.785384765625 0.010913085937500011 0.7881679687500001 0.009448242187500011 Q 0.7918300781250001 0.0074707031250000056 0.7957485351562501 0.005529785156250008 Q 0.7996669921875 0.0035888671874999972 0.8017910156250001 0.0024902343749999972 L 0.8017910156250001 0.10356445312500001 Q 0.8017910156250001 0.10656738281250003 0.80182763671875 0.10913085937500003 Q 0.8018642578125 0.11169433593750003 0.8026699218750001 0.11359863281250002 Q 0.8045009765625001 0.11755371093750003 0.8118984375 0.11755371093750003 Q 0.8142421875000001 0.11755371093750003 0.8164394531250001 0.11711425781250002 M 0.897180908203125 0.11264648437500002 Q 0.887146728515625 0.12385253906250002 0.872278564453125 0.1266357421875 Q 0.868836181640625 0.12722167968750003 0.8637824707031251 0.12722167968750003 Q 0.858728759765625 0.12722167968750003 0.8542609863281251 0.12440185546875002 Q 0.849793212890625 0.12158203125000003 0.8469367675781251 0.11711425781250002 Q 0.841516845703125 0.10847167968750002 0.841516845703125 0.09602050781250002 Q 0.841516845703125 0.08781738281250001 0.8478156738281251 0.07785644531250002 Q 0.853968017578125 0.06804199218750001 0.8628303222656251 0.06145019531250001 Q 0.8723518066406251 0.05441894531250001 0.8808479003906251 0.05441894531250001 Q 0.8852424316406251 0.05441894531250001 0.888245361328125 0.057641601562500006 Q 0.8910285644531251 0.060791015625000014 0.8910285644531251 0.06481933593750001 Q 0.8910285644531251 0.06884765625000001 0.8892707519531251 0.07225341796875001 Q 0.887512939453125 0.07565917968750002 0.8846931152343751 0.0788818359375 Q 0.8818732910156251 0.08210449218750002 0.8782478027343751 0.08507080078125001 Q 0.8746223144531251 0.08803710937500002 0.870813720703125 0.09060058593750002 Q 0.8654670410156251 0.09426269531250002 0.8573371582031251 0.09887695312500001 Q 0.859680908203125 0.10773925781250002 0.8656135253906251 0.11253662109375002 Q 0.871546142578125 0.11733398437500002 0.880921142578125 0.11733398437500002 Q 0.8888312988281251 0.11733398437500002 0.897180908203125 0.11264648437500002 M 0.875061767578125 0.0832763671875 Q 0.877039306640625 0.08012695312500001 0.877039306640625 0.07712402343750002 Q 0.877039306640625 0.07412109375 0.8763801269531251 0.07203369140625002 Q 0.8757209472656251 0.06994628906250001 0.874475830078125 0.06833496093750002 Q 0.8716193847656251 0.06467285156250002 0.8670783691406251 0.06467285156250002 Q 0.8559455566406251 0.06467285156250002 0.8559455566406251 0.08737792968750002 Q 0.8559455566406251 0.09140625000000002 0.8566047363281251 0.09536132812500002 Q 0.8694953613281251 0.09177246093750002 0.875061767578125 0.0832763671875" fill="#23953c" fill-rule="nonzero"></path></g><g></g></g><defs><clipPath id="SvgjsClipPath187760"><path d=" M -1.8092043668021751 -4.710525505479446 h 4.518519329307475 v 4.450525505479447 h -4.518519329307475 Z"></path></clipPath><clipPath id="SvgjsClipPath1877558bb2ab01-03f2-4312-a735-9d502ab9dbc2"><path d=" M -1.8092043668021751 -4.710525505479446 L 2.7093149625053 -4.710525505479446 L 2.7093149625053 -0.2599999999999998 L -1.8092043668021751 -0.2599999999999998 Z"></path></clipPath></defs></svg>