<svg width="26" height="26" viewBox="0 0 26 26" fill="none" xmlns="http://www.w3.org/2000/svg">
<path d="M25.48 13.2889C25.48 12.22 25.3933 11.44 25.2056 10.6311H13V15.4555H20.1644C20.02 16.6544 19.24 18.46 17.5066 19.6733L17.4823 19.8348L21.3415 22.8244L21.6089 22.8511C24.0644 20.5833 25.48 17.2466 25.48 13.2889Z" fill="#4285F4"/>
<path d="M13 26C16.5099 26 19.4566 24.8444 21.6089 22.8511L17.5066 19.6733C16.4089 20.4388 14.9355 20.9733 13 20.9733C9.56224 20.9733 6.64448 18.7056 5.60438 15.5711L5.45193 15.5841L1.43911 18.6896L1.38663 18.8355C3.52438 23.0822 7.91551 26 13 26Z" fill="#34A853"/>
<path d="M5.60439 15.5711C5.32995 14.7622 5.17112 13.8955 5.17112 13C5.17112 12.1044 5.32995 11.2377 5.58995 10.4289L5.58268 10.2566L1.51957 7.10115L1.38663 7.16438C0.505561 8.92663 0 10.9056 0 13C0 15.0944 0.505561 17.0733 1.38663 18.8355L5.60439 15.5711Z" fill="#FBBC05"/>
<path d="M13 5.02663C15.4411 5.02663 17.0877 6.08107 18.0266 6.96225L21.6955 3.38C19.4422 1.28556 16.5099 0 13 0C7.9155 0 3.52438 2.91776 1.38663 7.16439L5.58994 10.4289C6.64448 7.29444 9.56224 5.02663 13 5.02663Z" fill="#EB4335"/>
</svg>
